<svg id="Layer_1" data-name="Layer 1" xmlns="http://www.w3.org/2000/svg" viewBox="0 0 500 246.51"><defs><style>.cls-1{fill:#fff;}.cls-2{fill:#ed1c24;}</style></defs><rect class="cls-1" width="500" height="246.51" rx="9.73"/><path d="M174.49,117.06h-33.7V87.26Q140.79,81,135,81t-5.79,6V197.46H95.51V60.19h33.7V64.8q6.73-5.56,20.81-5.56a28.05,28.05,0,0,1,17.26,5.38,16.81,16.81,0,0,1,7.21,14.13Z"/><path d="M180.29,60.19V197.46H214V60.19Z"/><rect x="180.29" y="27.91" width="33.7" height="24.71"/><path d="M299.94,197.46H266.25V87.26q0-6.26-5.86-6.26t-5.85,6V197.46h-33.7V60.19h33.7V64.8q6.75-5.56,20.86-5.56a30.49,30.49,0,0,1,16.84,5q7.69,5,7.7,14.54Z"/><path d="M386,121h-33.7V87.26q0-6.74-5.67-6.74t-5.8,6.74v84.07q0,7,5.8,7t5.67-7V138.11H386v33.46q0,27.78-38.9,27.78-40,0-40-29V88.21q0-29,40-29Q386,59.24,386,87Z"/><path d="M423.74,197.46H393V172.75h30.74Z"/><rect class="cls-2" x="180.29" y="27.91" width="33.7" height="24.71"/></svg>